<?xml version="1.0" encoding="UTF-8"?>
<svg id="Livello_1" data-name="Livello 1" xmlns="http://www.w3.org/2000/svg" viewBox="0 0 119.56 208.52">
  <defs>
    <style>
      .cls-1 {
        fill: #3c4d69;
      }

      .cls-1, .cls-2 {
        stroke-width: 0px;
      }

      .cls-2 {
        fill: #266b79;
      }
    </style>
  </defs>
  <polygon class="cls-1" points="104.42 113.78 104.45 144.8 119.36 130.69 119.42 99.59 104.42 113.78"/>
  <polygon class="cls-1" points="35.42 61.71 51.34 76.71 96.92 76.71 111.92 61.71 35.42 61.71"/>
  <polygon class="cls-1" points=".18 72.22 .18 104.51 15.18 118.68 15.18 86.35 .18 72.22"/>
  <polygon class="cls-1" points=".18 147.82 .18 208.28 38.14 208.28 54.02 193.28 15.18 193.28 15.18 161.99 .18 147.82"/>
  <polygon class="cls-1" points="83.58 208.52 119.42 208.28 119.42 174.6 83.58 208.52"/>
  <polygon class="cls-2" points="119.38 64.78 38.98 140.99 52.58 153.85 119.43 90.41 119.38 64.78"/>
  <polygon class="cls-2" points="47.45 208.34 73.81 208.34 119.41 165.18 119.56 140.08 47.45 208.34"/>
  <polygon class="cls-2" points="0 113.59 0 138.25 55.73 191 68.75 178.67 0 113.59"/>
  <polygon class="cls-2" points="26.62 61.56 .27 61.56 55.92 115.45 69.36 102.73 26.62 61.56"/>
  <g>
    <path class="cls-2" d="M14.81.89v50.95H.62V.89h14.19Z"/>
    <path class="cls-2" d="M35.88,36.5c.92,4.56,4.15,6.46,9.16,6.46,4.75,0,6.91-1.69,6.91-4.79,0-3.5-2.31-4.84-10.44-6.77-14.84-3.56-17.9-8.99-17.9-15.83C23.6,6.86,30.04,0,43.71,0c14.51,0,20.39,7.44,21.11,15.37h-13.8c-.41-2.75-1.83-5.68-7.41-5.68-3.59,0-5.8,1.38-5.8,4.29s1.9,4.03,9.82,5.94c15.49,3.8,18.68,9.41,18.68,16.68,0,9.57-7.35,16.14-21.98,16.14-13.79,0-21.17-6.48-22.33-16.24h13.88Z"/>
    <path class="cls-2" d="M73.44,51.85V.89h17.04c5.57,11.44,14.13,28.01,16.3,34.09h.22c-.57-5.22-.67-14.23-.67-22.42V.89h12.87v50.95h-16.23c-4.55-9.35-14.56-29.46-16.95-35.97h-.19c.45,4.62.52,14.75.52,23.76v12.21h-12.93Z"/>
  </g>
</svg>